# xmcd
#
# Track frame offsets: 
#        150
#        13152
#        26852
#        41892
#        53362
#        69720
#        84202
#        100770
#        114875
#        127010
#
# Disc length: 1919 seconds
#
# Revision: 0
# Processed by: cddbd v1.4PL0 Copyright (c) Steve Scherf et al.
# Submitted via: ExactAudioCopy v0.90b3
#
DISCID=7c077d0a
DTITLE=Eddie Rabbitt - The Best Year Of My Life
DYEAR=1900
DGENRE=Country
TTITLE0=Warning Sign
TTITLE1=Could've Been Somebody Else
TTITLE2=Dial That Telephone
TTITLE3=B-B-B-Burnin' Up With Love
TTITLE4=Every Night I Fall In Love With You (Duet With Hillary Kanter)
TTITLE5=The Best Year Of My Life
TTITLE6=Big Brown Eyes
TTITLE7=She's Comin' Back To Say Goodbye
TTITLE8=Over There
TTITLE9=Go To Sleep Big Bertha
EXTD=
EXTT0=
EXTT1=
EXTT2=
EXTT3=
EXTT4=
EXTT5=
EXTT6=
EXTT7=
EXTT8=
EXTT9=
PLAYORDER=
